<svg version="1.1" id="Layer_1" xmlns="http://www.w3.org/2000/svg" xmlns:xlink="http://www.w3.org/1999/xlink" x="0px" y="0px"
	 viewBox="0 0 144.9 105.9" style="enable-background:new 0 0 144.9 105.9;" xml:space="preserve">
<style type="text/css">
	.st0{opacity:0.2;fill:none;stroke:#F95F5F;}
</style>
<path id="Shape" class="st0" d="M91.8,2.1c-28,0-50.7,22.7-50.7,50.7s22.7,50.7,50.7,50.7s50.7-22.7,50.7-50.7S119.9,2.1,91.8,2.1z
	 M91.8,90.9c-21,0-38-17.1-38-38s17.1-38,38-38s38,17.1,38,38S112.8,90.9,91.8,90.9z M15.8,52.8c0-16.5,10.6-30.6,25.4-35.8V3.8
	c-21.9,5.6-38,25.4-38,49.1s16.2,43.4,38,49.1V88.7C26.4,83.5,15.8,69.4,15.8,52.8z"/>
</svg>
